<svg width="22" height="47" viewBox="0 0 22 47" fill="none" xmlns="http://www.w3.org/2000/svg">
<path fill-rule="evenodd" clip-rule="evenodd" d="M9.70544 7.40829H6.45471V7.40009C6.29161 5.45621 7.76157 3.9124 9.76904 3.47644C9.62996 3.37202 9.51605 3.23777 9.43566 3.08356C8.45603 1.20533 9.70852 0.293407 10.6728 0.0492687C11.3898 -0.157941 12.8085 0.340593 13.4239 0.615505C14.2825 1.05249 14.8426 0.622686 15.0149 0.353929C15.5227 1.83722 14.0784 3.08356 12.5141 3.59132C14.3256 4.16269 15.6376 5.67983 15.4437 7.39803V7.42676C15.4109 7.41457 15.3762 7.40832 15.3411 7.40829H12.0955C11.9564 7.41046 11.8195 7.44406 11.6952 7.50659C11.5708 7.56912 11.4622 7.65895 11.3775 7.76937C11.3211 7.8422 11.2488 7.90116 11.1661 7.94172C11.0835 7.98228 10.9926 8.00337 10.9005 8.00337C10.8084 8.00337 10.7175 7.98228 10.6348 7.94172C10.5522 7.90116 10.4799 7.8422 10.4235 7.76937C10.3388 7.65895 10.2302 7.56912 10.1058 7.50659C9.98148 7.44406 9.8446 7.41046 9.70544 7.40829ZM19.2265 35.1259C20.2464 35.7914 21.0499 36.7401 21.5386 37.8556C22.0566 39.0434 22.1797 40.3913 21.6945 41.6746C20.6923 44.2986 17.4672 45.4156 15.0566 46.0229C12.1988 46.7399 9.1932 46.6999 6.35176 46.1747C4.54842 45.8362 2.74098 45.2515 1.45977 44.118C-1.45553 41.5505 0.372429 38.0977 3.63444 37.3796C4.81831 37.1027 6.04036 37.0271 7.24933 37.156C7.49142 37.1847 7.7335 37.2237 7.97354 37.2729C8.1361 37.2952 8.29685 37.3292 8.45453 37.3746C8.40775 37.3648 8.20597 37.4591 8.08018 37.5178C8.03703 37.538 8.00282 37.554 7.98687 37.5601C7.80736 37.6217 7.62579 37.6914 7.44731 37.7653C7.0917 37.9123 6.74864 38.0879 6.42152 38.2905C5.56703 38.8352 4.98849 39.7605 5.10953 40.7996C5.22134 41.7526 5.87374 42.5598 6.68514 43.0327C7.63605 43.5846 8.80238 43.8 9.94408 43.8349C11.1504 43.8688 12.3875 43.7046 13.4482 43.2051C14.5089 42.7055 15.3726 41.8428 15.6177 40.817C16.4735 37.2499 12.2557 36.1495 8.75672 35.2367C7.66746 34.9525 6.64787 34.6865 5.87272 34.3699C5.27263 34.1248 4.72281 33.7545 4.4243 33.2416C4.06835 32.6425 4.18222 32.0281 4.58125 31.4793C4.65716 31.3777 5.34136 30.5499 5.53934 30.6002C4.78835 30.2253 4.097 29.7414 3.48776 29.164C2.97398 28.6703 2.52331 28.1149 2.14602 27.5105C1.77115 26.8646 1.48054 26.1734 1.28128 25.4538C1.07757 24.6579 0.977923 23.839 0.984826 23.0175C0.986193 21.5759 1.25153 20.3176 1.78084 19.2426C2.30042 18.188 3.04692 17.2615 3.9668 16.5294C4.48988 16.1082 5.06031 15.7495 5.66653 15.4605C4.77754 16.6993 4.29704 18.1846 4.29198 19.7093C4.27078 19.7248 4.24959 19.7399 4.22853 19.7548C4.17823 19.7906 4.12869 19.8259 4.08169 19.8642C3.76366 20.126 3.49541 20.4429 3.28978 20.7997C2.97819 21.3585 2.78705 21.9763 2.72867 22.6133C2.68971 23.0068 2.68559 23.4029 2.71636 23.7971C2.71819 23.8217 2.71953 23.8467 2.72086 23.8718C2.72853 24.0153 2.73643 24.1635 2.83946 24.27C2.98644 24.4081 3.16964 24.5017 3.36774 24.5398C3.37336 24.541 3.37916 24.5422 3.38508 24.5434C3.39859 24.546 3.41265 24.5488 3.42621 24.5531C3.57464 24.599 3.72845 24.6252 3.88371 24.6311C3.97182 24.6385 4.05997 24.6173 4.13503 24.5706C4.19358 24.5207 4.24041 24.4585 4.27215 24.3885C4.30389 24.3185 4.31977 24.2423 4.31865 24.1654C4.32476 24.1099 4.31882 24.0538 4.30122 24.0009C4.28362 23.948 4.25478 23.8995 4.21668 23.8588C4.17858 23.818 4.13212 23.786 4.08049 23.7649C4.02886 23.7439 3.97328 23.7342 3.91756 23.7366C3.87694 23.7366 3.67192 23.7227 3.54676 23.7143C3.49178 23.7105 3.45222 23.7079 3.44878 23.7079C3.43749 23.7079 3.43134 23.6432 3.43134 23.5509C3.43134 23.3829 3.44881 23.1185 3.45865 22.9696C3.46251 22.9113 3.46519 22.8707 3.46519 22.8606C3.52058 22.3241 3.66009 21.763 3.99655 21.328C4.16375 21.1116 4.47149 20.7967 4.77923 20.7587C5.08799 20.8018 5.39367 21.1218 5.55472 21.3403C5.88811 21.7763 6.02043 22.3395 6.06762 22.879C6.06762 22.8879 6.06895 22.921 6.07089 22.9693C6.07973 23.1894 6.10126 23.7253 6.06762 23.7253L5.8522 23.7366C5.8065 23.7383 5.75969 23.7404 5.71859 23.7423C5.66283 23.7448 5.61757 23.7468 5.59986 23.7468C5.36393 23.7448 5.18954 23.8935 5.18954 24.1684C5.1875 24.2459 5.20262 24.3229 5.23384 24.3938C5.26505 24.4648 5.31158 24.5279 5.37008 24.5788C5.44384 24.627 5.53151 24.6493 5.61935 24.6424C5.77496 24.6397 5.92952 24.6163 6.0789 24.5726L6.13737 24.5593C6.3363 24.5254 6.521 24.4341 6.66873 24.2967C6.7727 24.1944 6.783 24.0476 6.79296 23.9055C6.7948 23.8794 6.79662 23.8534 6.79901 23.8279C6.83577 23.4342 6.83817 23.0382 6.80619 22.6441C6.75605 22.0061 6.57406 21.3854 6.27175 20.8213C6.07718 20.4572 5.813 20.1348 5.4942 19.8724C5.42454 19.8232 5.35191 19.7783 5.27673 19.7381C5.27673 17.7101 6.16404 15.9057 7.53347 14.766L7.54989 14.7599L7.70375 14.7055C7.89153 14.6577 8.08197 14.621 8.27409 14.5958C8.27981 14.5948 8.2855 14.5939 8.29117 14.5929C8.32934 14.5866 8.36673 14.5804 8.40334 14.5804L8.52131 14.5568C8.40334 14.4891 8.29051 14.4173 8.18075 14.3393C8.15665 14.3196 8.13129 14.3014 8.10484 14.285C7.88916 14.1344 7.68915 13.9626 7.50783 13.7721C7.49411 13.7587 7.48142 13.7443 7.46987 13.729L7.45038 13.7085C7.09167 13.3416 6.8558 12.8724 6.77541 12.3657L6.68514 10.9727C6.37205 10.9438 6.0779 10.81 5.85045 10.5929C5.62301 10.3758 5.47564 10.0882 5.43227 9.77678C5.38891 9.46536 5.45209 9.14843 5.61156 8.87745C5.77103 8.60647 6.01743 8.39736 6.31073 8.28408C6.31677 8.30015 6.31989 8.31717 6.31996 8.33434V9.40424C6.31996 10.428 7.11393 11.265 8.10689 11.265H8.7675C9.74918 11.265 10.5544 10.4372 10.5544 9.40424V8.81133C10.5558 8.72035 10.5927 8.63352 10.6573 8.56947C10.722 8.50541 10.8091 8.46924 10.9001 8.46872C10.9919 8.47161 11.0791 8.5098 11.1435 8.57533C11.2079 8.64087 11.2445 8.7287 11.2458 8.82056V9.40424C11.2458 10.428 12.0398 11.265 13.0327 11.265H13.6964C14.6781 11.265 15.4834 10.4372 15.4834 9.40424V8.32306C15.483 8.28969 15.4923 8.25694 15.51 8.22868C15.8369 8.30893 16.1237 8.50473 16.3175 8.77993C16.5113 9.05514 16.5989 9.39116 16.5643 9.72596C16.5297 10.0608 16.3751 10.3717 16.1291 10.6014C15.8831 10.8312 15.5623 10.9641 15.2259 10.9757L15.1387 12.3636C15.0658 12.8464 14.8516 13.2969 14.5232 13.6582L14.4586 13.732L14.4559 13.7351C14.4281 13.7669 14.4012 13.7976 14.3714 13.8274C14.2211 13.9805 14.0592 14.1218 13.8872 14.2501C13.8714 14.262 13.854 14.2736 13.8369 14.2852C13.8186 14.2975 13.8005 14.3097 13.7846 14.3219C13.7539 14.3455 13.7221 14.368 13.6923 14.3886C13.6158 14.4462 13.5393 14.4911 13.4607 14.5373C13.4498 14.5438 13.4387 14.5502 13.4277 14.5568L13.5826 14.5835C13.641 14.5927 13.6995 14.604 13.7559 14.6153H13.7641C13.7939 14.6204 13.9129 14.645 14.0801 14.683L14.434 14.8009C15.7819 15.9447 16.6517 17.7408 16.6517 19.7545V21.3219C16.2808 21.4343 15.9624 21.6756 15.7539 22.0022C15.5454 22.3289 15.4606 22.7193 15.5148 23.1031C15.569 23.4868 15.7586 23.8385 16.0494 24.0946C16.3403 24.3507 16.7131 24.4944 17.1006 24.4996C17.4881 24.5049 17.8647 24.3714 18.1624 24.1232C18.46 23.8751 18.6592 23.5287 18.7237 23.1466C18.7883 22.7644 18.7141 22.3718 18.5145 22.0396C18.315 21.7075 18.0032 21.4576 17.6355 21.3352V19.7545C17.64 18.1885 17.1417 16.6624 16.2137 15.401C16.7736 15.6566 17.3051 15.9702 17.7996 16.3365C18.1197 16.5665 18.4126 16.8322 18.6725 17.1284L18.8244 17.2905C19.4668 17.9785 19.9689 18.7851 20.3025 19.6652C20.652 20.5666 20.8267 21.5985 20.8267 22.7611C20.8267 24.2177 20.5532 25.5044 20.0061 26.6211C19.0131 28.6481 17.2846 30.1334 15.2597 30.9571C13.2348 31.7808 10.7237 32.0075 8.38693 31.5562C7.98072 31.7111 7.66067 32.0988 7.80223 32.4579C7.91609 32.7492 8.27102 32.9102 8.60645 33.0067C9.3935 33.2342 10.2304 33.2665 11.0631 33.2986C11.2441 33.3056 11.4248 33.3126 11.6048 33.3216C14.1878 33.4539 16.9759 33.6755 19.2265 35.1259ZM8.45771 37.3755C8.45665 37.3752 8.45559 37.3749 8.45453 37.3746ZM8.4495 18.4579C8.20542 19.1503 8.04461 19.8693 7.97046 20.5997C7.87833 21.403 7.83311 22.211 7.83506 23.0196C7.83332 23.8421 7.87853 24.6641 7.97046 25.4815C8.0462 26.218 8.20695 26.9433 8.4495 27.6428C8.64099 28.2219 8.95918 28.7511 9.38092 29.1917C9.77688 29.5733 10.2826 29.7621 10.9052 29.7621C11.5282 29.7621 12.036 29.5569 12.4285 29.1466C12.8527 28.6893 13.172 28.1449 13.3641 27.5515C13.6037 26.8295 13.7633 26.0834 13.84 25.3266C13.9324 24.5027 13.9779 23.6742 13.9765 22.8452C13.9787 22.0448 13.9332 21.2449 13.84 20.45C13.7647 19.742 13.6045 19.0456 13.363 18.3758C13.1709 17.8203 12.8507 17.3179 12.4285 16.9089C12.0336 16.5273 11.5279 16.3365 10.9052 16.3365C10.2826 16.3365 9.77585 16.5345 9.38092 16.9294C8.9561 17.3598 8.63722 17.883 8.4495 18.4579Z" fill="url(#paint0_linear_55010_6985)"/>
<defs>
<linearGradient id="paint0_linear_55010_6985" x1="3" y1="43" x2="53.303" y2="21.6756" gradientUnits="userSpaceOnUse">
<stop stop-color="#612ABE"/>
<stop offset="1" stop-color="#AE1BDE"/>
</linearGradient>
</defs>
</svg>
