<svg width="136" height="48" viewBox="0 0 136 48" fill="none" xmlns="http://www.w3.org/2000/svg">
<path d="M69.5319 8.1712H72.777C72.9163 8.17357 73.0532 8.20758 73.1775 8.27066C73.3017 8.33374 73.41 8.42423 73.4941 8.5353C73.5504 8.60776 73.6225 8.66639 73.7049 8.70673C73.7873 8.74706 73.8779 8.76803 73.9697 8.76803C74.0614 8.76803 74.152 8.74706 74.2344 8.70673C74.3168 8.66639 74.3889 8.60776 74.4452 8.5353C74.5299 8.42481 74.6386 8.335 74.763 8.27265C74.8875 8.21029 75.0245 8.17702 75.1637 8.17535H78.4005C78.4364 8.1749 78.472 8.181 78.5057 8.19335V8.16566C78.6995 6.45175 77.3912 4.93719 75.5846 4.36819C77.1448 3.86149 78.5846 2.61967 78.0765 1.13834C77.9035 1.40692 77.3442 1.83055 76.4886 1.39999C75.8725 1.12311 74.4604 0.628871 73.7447 0.835149C72.7839 1.07881 71.5296 1.98837 72.5112 3.86149C72.5914 4.01517 72.7049 4.14902 72.8434 4.25328C70.8332 4.68938 69.3671 6.22747 69.5208 8.16566L69.5319 8.1712Z" fill="#05182B"/>
<path d="M70.6423 8.63776C70.5415 8.64027 70.4423 8.66261 70.3502 8.70349C70.2581 8.74438 70.175 8.80301 70.1055 8.87603C70.0361 8.94906 69.9817 9.03505 69.9456 9.12909C69.9094 9.22313 69.8921 9.32338 69.8947 9.42411V10.0679C69.8876 10.451 70.0327 10.8213 70.2982 11.0977C70.5636 11.374 70.9278 11.5339 71.3109 11.5423H71.783C72.166 11.5339 72.53 11.374 72.7953 11.0976C73.0605 10.8212 73.2053 10.4509 73.1979 10.0679V9.42411C73.1995 9.32236 73.1811 9.22129 73.1436 9.12667C73.1062 9.03206 73.0504 8.94576 72.9796 8.87272C72.9087 8.79968 72.8242 8.74133 72.7307 8.70101C72.6373 8.66069 72.5368 8.6392 72.4351 8.63776H70.6423Z" fill="#05182B"/>
<path d="M75.496 8.63776C75.3946 8.639 75.2943 8.66042 75.2012 8.70076C75.108 8.7411 75.0239 8.79955 74.9535 8.87273C74.8832 8.9459 74.8281 9.03233 74.7915 9.12699C74.7548 9.22165 74.7374 9.32265 74.7402 9.42411V10.0679C74.7327 10.4511 74.8777 10.8216 75.1433 11.0981C75.4088 11.3745 75.7732 11.5343 76.1564 11.5423H76.6271C77.0103 11.5343 77.3747 11.3745 77.6403 11.0981C77.9058 10.8216 78.0508 10.4511 78.0434 10.0679V9.42411C78.045 9.32236 78.0266 9.22129 77.9891 9.12667C77.9517 9.03206 77.8959 8.94576 77.8251 8.87272C77.7542 8.79968 77.6696 8.74133 77.5762 8.70101C77.4828 8.66069 77.3823 8.6392 77.2806 8.63776H75.496Z" fill="#05182B"/>
<path d="M84.579 38.5375C84.0926 37.4225 83.2909 36.4741 82.2725 35.8088C80.0284 34.3621 77.2471 34.1475 74.672 34.0091C73.667 33.9579 72.6369 33.9717 71.6817 33.6934C71.348 33.5979 70.9895 33.4373 70.8801 33.1397C70.7417 32.7825 71.0573 32.3948 71.463 32.2412C73.7929 32.6911 76.2973 32.4655 78.3186 31.6431C80.3399 30.8208 82.0565 29.3408 83.0519 27.3196C83.5965 26.2046 83.8683 24.9208 83.8674 23.4681C83.8857 22.4161 83.7087 21.3697 83.3454 20.3822C83.0129 19.5042 82.512 18.6995 81.871 18.0135L81.7201 17.8515C81.4604 17.5562 81.1683 17.291 80.8493 17.061C80.3566 16.6957 79.8272 16.3825 79.2697 16.1265C80.1939 17.3859 80.6894 18.9087 80.6832 20.4708V22.0615C81.0496 22.1837 81.3603 22.4329 81.559 22.7641C81.7578 23.0952 81.8315 23.4866 81.7669 23.8674C81.7024 24.2482 81.5037 24.5934 81.2069 24.8405C80.9101 25.0877 80.5347 25.2205 80.1485 25.2151C79.7623 25.2096 79.3908 25.0662 79.101 24.8108C78.8113 24.5553 78.6225 24.2047 78.5687 23.8222C78.5149 23.4397 78.5997 23.0506 78.8077 22.7252C79.0157 22.3998 79.3333 22.1594 79.703 22.0477V20.4847C79.7129 19.5499 79.52 18.6242 79.1376 17.7712C78.7551 16.9182 78.1924 16.1582 77.488 15.5437L77.1377 15.4315C76.9716 15.3928 76.8525 15.3692 76.822 15.3637L76.649 15.3319L76.4939 15.3056C76.5839 15.2529 76.6711 15.1976 76.7584 15.138L76.8497 15.0716C76.8857 15.0494 76.9203 15.0245 76.9536 14.9996C77.1253 14.874 77.2868 14.7352 77.4367 14.5843C77.4672 14.5538 77.4949 14.522 77.5239 14.4901L77.5876 14.4168C77.9164 14.0533 78.1298 13.6003 78.2009 13.1154L78.2882 11.731C78.6303 11.7297 78.9599 11.6017 79.2132 11.3718C79.4666 11.1418 79.6259 10.8262 79.6603 10.4858C79.6947 10.1453 79.6018 9.80424 79.3995 9.52825C79.1973 9.25227 78.9 9.06095 78.565 8.99121C78.5478 9.01959 78.5387 9.05216 78.5387 9.08535V10.1652C78.548 10.6473 78.3656 11.1135 78.0316 11.4613C77.6975 11.8091 77.2391 12.0101 76.757 12.0203H76.0952C75.6149 12.0076 75.1591 11.8054 74.8274 11.4578C74.4956 11.1103 74.3149 10.6456 74.3246 10.1652V9.58236C74.3238 9.48906 74.2866 9.39974 74.2209 9.33351C74.1552 9.26728 74.0662 9.22939 73.9729 9.22795C73.8819 9.2283 73.7947 9.26431 73.73 9.32824C73.6653 9.39218 73.6283 9.47894 73.6268 9.5699V10.1624C73.6361 10.6446 73.4537 11.1107 73.1196 11.4585C72.7856 11.8063 72.3272 12.0074 71.8451 12.0176H71.1833C70.701 12.0077 70.2424 11.8068 69.9083 11.4589C69.5742 11.111 69.3919 10.6447 69.4016 10.1624V9.0895C69.4009 9.07204 69.3976 9.05478 69.3919 9.03828C69.0941 9.14672 68.8426 9.35401 68.6793 9.62554C68.516 9.89707 68.4508 10.2164 68.4945 10.5302C68.5382 10.8441 68.6883 11.1334 68.9197 11.3499C69.151 11.5664 69.4496 11.697 69.7657 11.7199L69.8556 13.1043C69.9356 13.6099 70.1713 14.0779 70.5299 14.4431C70.5351 14.4506 70.5411 14.4576 70.5478 14.4638C70.5592 14.4791 70.5717 14.4934 70.5852 14.5067C70.7666 14.6973 70.9665 14.8693 71.1819 15.0204C71.1954 15.0316 71.2098 15.0418 71.2248 15.0508L71.2567 15.0744C71.366 15.1519 71.4796 15.2239 71.5959 15.2917L71.4754 15.3125C71.4339 15.3125 71.391 15.3125 71.348 15.3277C71.1559 15.3526 70.9654 15.3891 70.7777 15.4371L70.6254 15.4911H70.6088C69.8944 16.1037 69.3225 16.8651 68.9332 17.722C68.5438 18.5788 68.3465 19.5104 68.3549 20.4514C68.4303 20.4929 68.5029 20.5391 68.5723 20.5899C68.8897 20.8523 69.153 21.1739 69.3476 21.5368C69.6491 22.0993 69.8306 22.7183 69.8806 23.3546C69.9138 23.7475 69.9138 24.1426 69.8806 24.5355C69.8653 24.6989 69.8723 24.8816 69.7504 25.002C69.6029 25.1392 69.4187 25.2305 69.2202 25.2651C69.2005 25.2678 69.1811 25.2719 69.1621 25.2775C69.0131 25.3213 68.859 25.345 68.7038 25.3481C68.6159 25.354 68.5284 25.3312 68.4546 25.2831C68.3966 25.2326 68.3504 25.1699 68.3193 25.0996C68.2882 25.0293 68.273 24.9529 68.2746 24.8761C68.2707 24.8205 68.2788 24.7648 68.2983 24.7126C68.3178 24.6605 68.3482 24.6131 68.3876 24.5737C68.427 24.5343 68.4744 24.5039 68.5265 24.4844C68.5787 24.4649 68.6344 24.4568 68.69 24.4607L68.9253 24.4566L69.1399 24.4441C69.1814 24.4441 69.1399 23.6495 69.1399 23.5996C69.0928 23.0625 68.9613 22.5004 68.6332 22.0629C68.4726 21.8442 68.1666 21.5258 67.8593 21.4828C67.552 21.5202 67.2432 21.8345 67.0785 22.0505C66.7435 22.4838 66.6036 23.0431 66.5496 23.5733C66.5496 23.6093 66.515 24.0288 66.515 24.2655C66.515 24.3583 66.515 24.422 66.5317 24.422C66.5483 24.422 66.9401 24.451 66.9996 24.451C67.0552 24.4485 67.1107 24.458 67.1623 24.479C67.2139 24.5 67.2603 24.5319 67.2983 24.5726C67.3364 24.6133 67.3651 24.6617 67.3826 24.7146C67.4001 24.7675 67.4059 24.8235 67.3997 24.8788C67.401 24.9555 67.3853 25.0316 67.3537 25.1015C67.3221 25.1714 67.2754 25.2334 67.2169 25.2831C67.1418 25.329 67.0541 25.3498 66.9664 25.3426C66.8112 25.3378 66.6575 25.3117 66.5095 25.2651C66.4901 25.2651 66.4693 25.2568 66.4514 25.2526C66.2531 25.2127 66.0705 25.1166 65.9253 24.9757C65.8048 24.8511 65.8131 24.6684 65.8021 24.505C65.7718 24.1118 65.7755 23.7167 65.8131 23.3241C65.8722 22.689 66.0631 22.0732 66.3738 21.5161C66.5787 21.1594 66.8465 20.8428 67.1643 20.5816C67.2294 20.5276 67.3028 20.4764 67.3734 20.4279C67.3783 18.9072 67.8574 17.4258 68.744 16.1902C68.1408 16.4791 67.5731 16.8369 67.0522 17.2562C66.1354 17.9864 65.3913 18.9101 64.8731 19.9614C64.3443 21.0412 64.0798 22.2996 64.0798 23.7367C64.0728 24.5564 64.1724 25.3736 64.3761 26.1677C64.5747 26.8857 64.8645 27.5752 65.2386 28.2194C65.613 28.8226 66.0608 29.3769 66.5718 29.8697C67.1784 30.4438 67.8665 30.9252 68.6138 31.2984C68.4158 31.2472 67.7333 32.0737 67.6572 32.1747C67.2599 32.7216 67.1491 33.3349 67.5007 33.9329C67.7984 34.4424 68.348 34.8134 68.9461 35.0571C72.2022 36.382 79.7833 36.8208 78.6619 41.4863C78.4169 42.508 77.5544 43.3705 76.4967 43.8675C75.439 44.3645 74.2069 44.5293 73.0038 44.4961C71.8644 44.4615 70.7015 44.2469 69.7518 43.6959C68.9433 43.2252 68.2926 42.4194 68.1819 41.4697C68.0614 40.4328 68.6387 39.5108 69.4902 38.9667C69.8172 38.7625 70.1608 38.586 70.5174 38.4392C70.6946 38.3659 70.876 38.3008 71.0559 38.2316C71.1196 38.2066 71.4713 38.0253 71.5253 38.0461C71.3669 38.0002 71.2054 37.9659 71.0421 37.9436C70.8021 37.8938 70.5612 37.8545 70.3194 37.8259C69.1156 37.6977 67.8988 37.7731 66.7199 38.0488C63.4679 38.7673 61.6446 42.2021 64.5519 44.7688C65.838 45.904 67.6406 46.4924 69.4348 46.8247C72.2701 47.348 75.2701 47.3881 78.1165 46.6738C80.5212 46.0688 83.7372 44.9543 84.7368 42.3364C85.2186 41.0696 85.0954 39.7212 84.579 38.5375ZM71.0476 21.3278C71.1213 20.6006 71.2817 19.8849 71.5253 19.1958C71.7123 18.6228 72.0304 18.1014 72.4542 17.6729C72.6541 17.4753 72.8923 17.3208 73.1542 17.2188C73.4162 17.1169 73.6962 17.0698 73.9771 17.0804C74.2562 17.0693 74.5347 17.1142 74.7963 17.2124C75.0578 17.3106 75.297 17.4601 75.4999 17.6521C75.9193 18.0599 76.2382 18.5594 76.4316 19.1113C76.6719 19.7822 76.8313 20.4793 76.9065 21.188C77 21.981 77.0463 22.7789 77.0449 23.5775C77.0454 24.4041 76.9992 25.23 76.9065 26.0514C76.8287 26.8048 76.6695 27.5475 76.4316 28.2665C76.2373 28.8576 75.9176 29.3997 75.4944 29.8558C75.2974 30.0585 75.0601 30.2175 74.7977 30.3227C74.5354 30.4278 74.254 30.4768 73.9715 30.4663C73.6926 30.4778 73.4142 30.4333 73.1526 30.3356C72.8911 30.2379 72.6518 30.0889 72.4487 29.8974C72.0274 29.4583 71.71 28.9303 71.5197 28.3523C71.2773 27.6548 71.117 26.9314 71.0421 26.1968C70.949 25.3824 70.9028 24.5633 70.9036 23.7436C70.9042 22.9362 70.9523 22.1295 71.0476 21.3278Z" fill="#05182B"/>
<path d="M90.2371 24.8059C90.2409 25.1364 90.2831 25.4654 90.3631 25.7861C90.4622 26.1468 90.5933 26.498 90.7549 26.8355C90.9259 27.196 91.1323 27.5388 91.371 27.8586C91.6226 28.1746 91.9092 28.4611 92.2252 28.7127C92.5532 28.9649 92.9166 29.1673 93.3036 29.3136C93.7154 29.4666 94.1518 29.5427 94.5911 29.5379C94.8979 29.5403 95.2037 29.5026 95.5007 29.4257C95.7734 29.3542 96.0369 29.2511 96.2857 29.1184C96.5297 28.9859 96.7638 28.836 96.9862 28.6698C97.2086 28.4926 97.4324 28.308 97.6576 28.1161L98.0079 28.4511C97.7525 28.7867 97.475 29.1049 97.1772 29.4036C96.8087 29.7744 96.4001 30.1031 95.9589 30.3837C94.8104 31.1013 93.4766 31.4661 92.1227 31.4331C91.3098 31.4331 90.5036 31.2863 89.7429 30.9998C88.9774 30.7009 88.2815 30.2481 87.6981 29.6694C87.0748 29.0409 86.5846 28.2932 86.2569 27.4709C85.8831 26.4884 85.7021 25.443 85.7239 24.392C85.7159 23.6009 85.8246 22.813 86.0465 22.0537C86.248 21.3747 86.5429 20.727 86.9228 20.1293C87.2837 19.5748 87.7172 19.071 88.2117 18.6314C88.6856 18.2164 89.207 17.859 89.765 17.5668C90.287 17.285 90.8417 17.0688 91.4167 16.923C92.5453 16.6233 93.7325 16.6233 94.8611 16.923C95.3188 17.0458 95.7506 17.2497 96.1361 17.5252C96.4599 17.753 96.724 18.0555 96.9059 18.4071C97.072 18.7275 97.1585 19.0832 97.1579 19.444C97.1615 19.8705 97.0291 20.2871 96.7799 20.6333C96.5058 20.9991 96.1636 21.3084 95.772 21.5442L90.2371 24.8059ZM93.0517 21.9637C93.1548 21.9013 93.253 21.831 93.3452 21.7533C93.4264 21.6828 93.4931 21.5972 93.5417 21.5013C93.5915 21.3853 93.6241 21.2626 93.6387 21.1372C93.6701 20.9571 93.6844 20.7745 93.6816 20.5917C93.6791 20.333 93.6508 20.0751 93.5971 19.822C93.553 19.5403 93.4681 19.2666 93.3452 19.0093C93.2338 18.7711 93.0767 18.557 92.8828 18.3794C92.6994 18.2127 92.4591 18.1225 92.2113 18.1275C91.8942 18.1206 91.5854 18.2299 91.3433 18.4348C91.0962 18.6486 90.8958 18.9111 90.7549 19.2059C90.595 19.5555 90.4729 19.9213 90.3908 20.2968C90.3064 20.6983 90.2413 21.1053 90.1956 21.5151C90.1499 21.9249 90.1208 22.3223 90.1112 22.7057C90.1015 23.0892 90.0973 23.398 90.0973 23.6582L93.0517 21.9637Z" fill="#05182B"/>
<path d="M108.51 24.2595C108.525 23.3189 108.469 22.3784 108.341 21.4464C108.239 20.7366 108.1 20.1999 107.926 19.8363C107.752 19.4726 107.555 19.2299 107.338 19.1081C107.138 18.9904 106.912 18.9274 106.68 18.9253C106.42 18.9222 106.165 19.0006 105.952 19.1496C105.749 19.2875 105.565 19.4524 105.406 19.6397C105.263 19.8154 105.132 20.0004 105.013 20.1935C104.936 20.339 104.847 20.4779 104.747 20.6088V29.9619C104.744 30.1125 104.726 30.2623 104.692 30.4091C104.646 30.5945 104.55 30.7638 104.415 30.8992C104.233 31.0738 104.012 31.2032 103.77 31.2771C103.396 31.4042 103.003 31.4615 102.608 31.446C102.209 31.4617 101.809 31.3997 101.433 31.2633C101.191 31.1765 100.971 31.0381 100.788 30.8577C100.653 30.7222 100.558 30.5529 100.511 30.3676C100.478 30.2347 100.46 30.0987 100.456 29.9619V19.1635C100.462 18.916 100.393 18.6724 100.259 18.4643C100.137 18.258 99.9282 18.1556 99.6292 18.1556C99.4892 18.1513 99.3502 18.1803 99.2236 18.24C99.0944 18.3068 98.9724 18.3866 98.8595 18.4782L98.5521 18.1279C98.7796 17.9411 99.0182 17.7682 99.2665 17.6101C99.5415 17.4305 99.832 17.2758 100.135 17.1477C100.456 17.013 100.789 16.9051 101.129 16.8252C101.496 16.7402 101.872 16.6979 102.249 16.6992C102.855 16.6992 103.327 16.8021 103.663 17.0079C103.97 17.1754 104.226 17.4221 104.405 17.7223C104.56 17.993 104.654 18.2937 104.682 18.6041C104.716 18.8548 104.735 19.1072 104.738 19.36C105.077 18.8726 105.472 18.4261 105.914 18.0296C106.101 17.8547 106.297 17.6911 106.503 17.5395C106.723 17.3836 106.954 17.2448 107.195 17.1242C107.445 16.9937 107.708 16.8902 107.98 16.8155C108.259 16.7408 108.546 16.7031 108.834 16.7033C109.415 16.6916 109.99 16.8163 110.514 17.0674C111.04 17.3417 111.473 17.7656 111.76 18.2857C112.095 18.8543 112.352 19.6102 112.529 20.5534C112.73 21.7047 112.825 22.8721 112.812 24.0408C112.829 25.2268 112.707 26.4108 112.448 27.5683C112.246 28.4568 111.926 29.3141 111.495 30.117C111.15 30.7569 110.701 31.3344 110.165 31.8254C109.712 32.2406 109.206 32.5922 108.658 32.8706C108.198 33.1072 107.708 33.2814 107.202 33.3884C106.812 33.4818 106.414 33.5383 106.013 33.5573L105.858 32.9827C106.129 32.9213 106.389 32.8176 106.629 32.6754C106.889 32.5181 107.113 32.3082 107.286 32.0593C107.505 31.7438 107.68 31.3995 107.804 31.0362C107.976 30.526 108.102 30.0015 108.182 29.4691C108.306 28.7362 108.385 27.9965 108.42 27.254C108.481 26.3966 108.511 25.3984 108.51 24.2595Z" fill="#05182B"/>
<path d="M120.39 18.3089C120.363 18.0377 120.268 17.7777 120.113 17.553C119.926 17.2875 119.669 17.079 119.371 16.9508C119.035 16.7828 118.564 16.6993 117.958 16.7002C117.581 16.6985 117.205 16.7404 116.838 16.8248C116.498 16.9044 116.165 17.0123 115.844 17.1474C115.541 17.2754 115.251 17.4301 114.976 17.6098C114.727 17.7679 114.489 17.9408 114.261 18.1276L114.556 18.4778C114.668 18.386 114.79 18.3062 114.919 18.2397C115.046 18.1799 115.185 18.151 115.326 18.1553C115.624 18.1553 115.834 18.2577 115.954 18.4626C116.089 18.671 116.158 18.9151 116.151 19.1631V29.9727C116.154 30.1088 116.169 30.2445 116.194 30.3783C116.239 30.5617 116.33 30.7305 116.458 30.8684C116.635 31.0503 116.851 31.1891 117.09 31.274C117.461 31.4114 117.856 31.4736 118.251 31.4568C118.65 31.4715 119.048 31.4143 119.427 31.2879C119.671 31.212 119.896 31.0834 120.085 30.9113C120.229 30.7792 120.331 30.6085 120.379 30.4199C120.421 30.2744 120.445 30.1241 120.45 29.9727V19.0233C120.446 18.7841 120.426 18.5454 120.39 18.3089Z" fill="#05182B"/>
<path d="M120.396 13.4454C120.397 13.7084 120.334 13.9678 120.213 14.2013C120.098 14.437 119.936 14.6467 119.737 14.8173C119.518 14.9921 119.272 15.1292 119.008 15.223C118.726 15.3275 118.427 15.3796 118.126 15.3767C117.817 15.3794 117.509 15.3274 117.217 15.223C116.955 15.1249 116.71 14.9882 116.489 14.8173C116.288 14.6449 116.122 14.4358 115.999 14.2013C115.886 13.9653 115.829 13.7068 115.831 13.4454C115.829 13.1885 115.887 12.9346 115.999 12.7033C116.118 12.4621 116.285 12.2474 116.489 12.072C116.707 11.8943 116.953 11.754 117.217 11.6567C117.509 11.5523 117.817 11.5003 118.126 11.503C118.427 11.5001 118.726 11.5522 119.008 11.6567C119.274 11.7495 119.521 11.8903 119.737 12.072C119.939 12.2457 120.101 12.461 120.213 12.7033C120.333 12.9321 120.396 13.1868 120.396 13.4454Z" fill="#05182B"/>
<path d="M127.601 24.8064C127.605 25.1369 127.647 25.4659 127.727 25.7866C127.827 26.1473 127.958 26.4985 128.119 26.836C128.29 27.1965 128.497 27.5392 128.735 27.859C128.987 28.1751 129.273 28.4616 129.589 28.7132C129.917 28.9656 130.281 29.1681 130.668 29.3141C131.08 29.4671 131.516 29.5432 131.955 29.5383C132.262 29.5408 132.568 29.5031 132.865 29.4262C133.138 29.3545 133.401 29.2513 133.65 29.1189C133.891 28.9861 134.123 28.8362 134.342 28.6703C134.567 28.4931 134.791 28.3085 135.015 28.1165L135.365 28.4516C135.11 28.7869 134.832 29.105 134.535 29.4041C134.166 29.7749 133.757 30.1036 133.316 30.3842C132.168 31.1018 130.834 31.4666 129.48 31.4336C128.667 31.4338 127.861 31.287 127.1 31.0003C126.335 30.7014 125.639 30.2486 125.056 29.6699C124.432 29.0414 123.942 28.2937 123.614 27.4714C123.259 26.5946 123.081 25.5683 123.081 24.3925C123.073 23.6014 123.182 22.8135 123.404 22.0542C123.603 21.3775 123.895 20.7318 124.272 20.1354C124.633 19.5812 125.066 19.0774 125.559 18.6374C126.034 18.2227 126.556 17.8653 127.114 17.5728C127.636 17.2911 128.191 17.0749 128.766 16.929C129.894 16.6293 131.082 16.6293 132.21 16.929C132.668 17.0515 133.099 17.2555 133.484 17.5313C133.808 17.7586 134.073 18.0612 134.255 18.4131C134.421 18.7335 134.508 19.0892 134.507 19.4501C134.511 19.8766 134.378 20.2931 134.129 20.6393C133.855 21.0054 133.512 21.3148 133.12 21.5502L127.601 24.8064ZM130.415 21.9642C130.518 21.9021 130.617 21.8318 130.71 21.7537C130.791 21.6836 130.857 21.598 130.905 21.5018C130.956 21.3861 130.989 21.2633 131.003 21.1377C131.034 20.9575 131.048 20.775 131.046 20.5922C131.043 20.3335 131.014 20.0757 130.961 19.8225C130.917 19.541 130.832 19.2673 130.71 19.0098C130.598 18.7716 130.441 18.5575 130.247 18.3799C130.064 18.2132 129.823 18.123 129.576 18.128C129.259 18.1211 128.95 18.2304 128.708 18.4353C128.46 18.6491 128.26 18.9116 128.119 19.2064C127.959 19.5558 127.837 19.9216 127.755 20.2973C127.671 20.6988 127.606 21.1058 127.559 21.5156C127.511 21.9254 127.484 22.3227 127.476 22.7062C127.467 23.0897 127.462 23.3984 127.462 23.6587L130.415 21.9642Z" fill="#05182B"/>
<path d="M24.8576 24.0876C24.8576 23.8473 24.7807 23.6647 24.6268 23.5397C24.4729 23.4147 24.2758 23.3522 24.0354 23.3522C23.6988 23.3522 23.3767 23.4291 23.0689 23.5829C22.7708 23.7367 22.5064 23.9627 22.2756 24.2606C22.0448 24.5586 21.8621 24.9287 21.7275 25.3709C21.5928 25.8035 21.5255 26.3082 21.5255 26.885C21.5255 27.4425 21.564 27.9039 21.6409 28.2692C21.7275 28.6345 21.8381 28.9277 21.9727 29.1488C22.1169 29.3603 22.2804 29.5093 22.4631 29.5958C22.6458 29.6823 22.8382 29.7255 23.0401 29.7255C23.2901 29.7255 23.5257 29.6631 23.7469 29.5381C23.9681 29.4035 24.1604 29.2353 24.3239 29.0334C24.4874 28.8316 24.6172 28.6057 24.7133 28.3557C24.8095 28.1058 24.8576 27.8559 24.8576 27.6059V24.0876ZM22.5641 17.772C22.2371 17.772 21.9342 17.8104 21.6553 17.8873C21.3765 17.9642 21.1361 18.0604 20.9341 18.1757C20.7322 18.2911 20.5735 18.4208 20.4581 18.565C20.3427 18.6996 20.285 18.8294 20.285 18.9544C20.285 19.0986 20.3571 19.2043 20.5014 19.2716C20.6552 19.3293 20.8235 19.4014 21.0062 19.4879C21.189 19.5648 21.3524 19.6801 21.4967 19.8339C21.6505 19.9781 21.7275 20.204 21.7275 20.5116C21.7275 20.7135 21.6842 20.901 21.5977 21.074C21.5207 21.2374 21.4101 21.3864 21.2659 21.521C21.1313 21.646 20.9678 21.7469 20.7755 21.8238C20.5927 21.8911 20.4004 21.9247 20.1985 21.9247C19.66 21.9247 19.2224 21.7421 18.8858 21.3768C18.5589 21.0115 18.3954 20.5261 18.3954 19.9205C18.3954 19.3341 18.5493 18.8342 18.857 18.4208C19.1647 17.9979 19.5638 17.6518 20.0542 17.3827C20.5543 17.1135 21.1168 16.9164 21.7419 16.7915C22.367 16.6569 22.992 16.5896 23.6171 16.5896C24.3672 16.5896 25.0836 16.6713 25.7663 16.8347C26.4491 16.9981 27.0501 17.2577 27.5694 17.6134C28.0983 17.969 28.5166 18.4208 28.8243 18.9688C29.1417 19.5167 29.3003 20.18 29.3003 20.9586V29.1055C29.3003 29.192 29.3051 29.2882 29.3148 29.3939C29.3244 29.4996 29.3484 29.5958 29.3869 29.6823C29.4253 29.7688 29.483 29.8409 29.56 29.8986C29.6369 29.9563 29.7475 29.9851 29.8917 29.9851C30.0648 29.9851 30.2235 29.9226 30.3678 29.7976C30.5216 29.6631 30.6562 29.5285 30.7716 29.3939L31.1322 29.6967C30.988 29.8986 30.8149 30.1197 30.613 30.36C30.411 30.6003 30.1658 30.8262 29.8773 31.0377C29.5888 31.2492 29.2523 31.427 28.8676 31.5712C28.4829 31.7154 28.0454 31.7875 27.555 31.7875C26.9491 31.7875 26.4106 31.6097 25.9394 31.254C25.4682 30.8887 25.1605 30.3312 25.0163 29.5814C24.7085 29.9947 24.3864 30.3408 24.0498 30.6195C23.7229 30.8983 23.3863 31.1242 23.0401 31.2972C22.6939 31.4703 22.3429 31.5952 21.9871 31.6722C21.6409 31.7491 21.2899 31.7875 20.9341 31.7875C20.4725 31.7875 20.0254 31.7154 19.5926 31.5712C19.1599 31.427 18.7704 31.2011 18.4243 30.8935C18.0877 30.5763 17.8136 30.1677 17.6021 29.6679C17.4001 29.168 17.2991 28.5576 17.2991 27.8366C17.2991 26.9619 17.4722 26.2457 17.8184 25.6882C18.1646 25.1306 18.6166 24.6644 19.1743 24.2895C19.7417 23.905 20.3812 23.5781 21.0928 23.309C21.814 23.0398 22.5497 22.7562 23.2997 22.4582C23.8575 22.2371 24.2614 21.9103 24.5114 21.4777C24.771 21.0355 24.9009 20.5837 24.9009 20.1223C24.9009 19.411 24.6893 18.8438 24.2662 18.4208C23.8527 17.9883 23.2853 17.772 22.5641 17.772Z" fill="#05182A"/>
<path d="M37.7098 17.7431C37.4887 17.7431 37.2771 17.772 37.0751 17.8297C36.8828 17.8873 36.7097 17.9835 36.5559 18.118C36.402 18.243 36.2818 18.4064 36.1953 18.6083C36.1087 18.8006 36.0654 19.0313 36.0654 19.3004C36.0654 19.6753 36.2001 20.0502 36.4693 20.4251C36.7482 20.7904 37.0896 21.1749 37.4935 21.5787C37.907 21.9728 38.3493 22.3861 38.8205 22.8187C39.3013 23.2417 39.7437 23.6935 40.1476 24.1741C40.5611 24.6452 40.9024 25.1498 41.1717 25.6882C41.4506 26.2265 41.59 26.8032 41.59 27.4185C41.59 28.1106 41.4698 28.7258 41.2294 29.2641C40.9986 29.8025 40.662 30.2591 40.2197 30.634C39.787 31.0089 39.2581 31.2973 38.633 31.4991C38.0175 31.6914 37.33 31.7875 36.5703 31.7875C35.9068 31.7875 35.3057 31.6962 34.7672 31.5135C34.2287 31.3213 33.7479 31.0906 33.3248 30.8214C32.9113 30.5426 32.5555 30.2495 32.2574 29.9418C31.9593 29.6342 31.7285 29.3555 31.565 29.1055L32.0698 28.745C32.1949 28.8892 32.3535 29.0478 32.5458 29.2209C32.7382 29.3843 32.9497 29.5381 33.1805 29.6823C33.4209 29.8265 33.6758 29.9466 33.945 30.0428C34.2143 30.1293 34.4884 30.1725 34.7672 30.1725C35.4596 30.1725 36.027 30.0091 36.4693 29.6823C36.9117 29.3458 37.1328 28.8508 37.1328 28.1971C37.1328 27.8318 37.0126 27.4569 36.7722 27.0724C36.5318 26.6783 36.2289 26.2745 35.8635 25.8612C35.4981 25.4478 35.1038 25.0201 34.6807 24.5779C34.2576 24.1357 33.8633 23.6791 33.4979 23.208C33.1324 22.737 32.8295 22.2516 32.5891 21.7517C32.3487 21.2518 32.2285 20.7327 32.2285 20.1944C32.2285 19.5888 32.3487 19.0601 32.5891 18.6083C32.8391 18.1565 33.1661 17.7816 33.57 17.4836C33.9835 17.1856 34.4499 16.9645 34.9692 16.8203C35.4981 16.6665 36.0414 16.5896 36.5991 16.5896C37.2434 16.5896 37.83 16.6473 38.3589 16.7626C38.8878 16.878 39.3398 17.0558 39.7148 17.2961C40.0995 17.5269 40.3928 17.82 40.5947 18.1757C40.8063 18.5314 40.9121 18.9447 40.9121 19.4158C40.9121 19.7811 40.7919 20.0983 40.5515 20.3674C40.311 20.6366 39.9745 20.7712 39.5417 20.7712C39.1282 20.7712 38.8109 20.6847 38.5897 20.5116C38.3782 20.329 38.2724 20.0839 38.2724 19.7763C38.2724 19.5744 38.3205 19.4158 38.4166 19.3004C38.5224 19.1851 38.6378 19.0937 38.7628 19.0265C38.8878 18.9496 38.9984 18.8871 39.0946 18.839C39.2004 18.7813 39.2532 18.7092 39.2532 18.6227C39.2532 18.3536 39.109 18.1421 38.8205 17.9883C38.532 17.8249 38.1618 17.7431 37.7098 17.7431Z" fill="#05182A"/>
<path d="M47.9945 24.9384C47.9945 25.246 48.0378 25.5824 48.1243 25.9477C48.2205 26.3034 48.3551 26.6639 48.5282 27.0291C48.7013 27.3944 48.9129 27.7453 49.1629 28.0818C49.4225 28.4086 49.7158 28.7018 50.0428 28.9613C50.3793 29.2209 50.7496 29.4276 51.1535 29.5814C51.5574 29.7352 51.9997 29.8121 52.4805 29.8121C52.8171 29.8121 53.1296 29.7736 53.4181 29.6967C53.7066 29.6198 53.9759 29.5141 54.2259 29.3795C54.4759 29.2449 54.7163 29.0911 54.9471 28.9181C55.1779 28.7354 55.4087 28.5432 55.6395 28.3413L56.0001 28.6874C55.7789 28.9854 55.4952 29.3122 55.1491 29.6679C54.8029 30.0235 54.3846 30.36 53.8941 30.6772C53.4037 30.9848 52.8315 31.2444 52.1776 31.4559C51.5237 31.6577 50.7784 31.7587 49.9418 31.7587C49.1052 31.7587 48.2878 31.6097 47.4896 31.3117C46.7011 31.0041 45.9991 30.5474 45.3837 29.9418C44.7682 29.3362 44.273 28.5816 43.8979 27.678C43.5325 26.7744 43.3498 25.717 43.3498 24.5058C43.3498 23.631 43.4604 22.8283 43.6816 22.0978C43.9027 21.3672 44.2009 20.7087 44.5759 20.1223C44.9605 19.5359 45.4029 19.0217 45.9029 18.5795C46.4126 18.1373 46.9463 17.772 47.5041 17.4836C48.0618 17.1856 48.6292 16.9645 49.2062 16.8203C49.7928 16.6665 50.3553 16.5896 50.8938 16.5896C51.6054 16.5896 52.2257 16.6665 52.7546 16.8203C53.2835 16.9741 53.721 17.1808 54.0672 17.4403C54.423 17.6999 54.6875 18.0027 54.8606 18.3488C55.0337 18.6852 55.1202 19.0409 55.1202 19.4158C55.1202 19.8676 54.9904 20.2761 54.7307 20.6414C54.4711 20.9971 54.1249 21.3095 53.6922 21.5787L47.9945 24.9384ZM50.8938 22.0112C51.0188 21.9343 51.1198 21.8622 51.1967 21.795C51.2833 21.7181 51.3506 21.6315 51.3987 21.5354C51.4468 21.4297 51.4804 21.3047 51.4997 21.1605C51.5285 21.0067 51.5429 20.8193 51.5429 20.5982C51.5429 20.3578 51.5141 20.0935 51.4564 19.8051C51.4083 19.5071 51.3218 19.2283 51.1967 18.9688C51.0717 18.7092 50.9131 18.4929 50.7207 18.3199C50.5284 18.1469 50.2976 18.0604 50.0284 18.0604C49.6822 18.0604 49.3841 18.1661 49.134 18.3776C48.8936 18.5795 48.6917 18.8438 48.5282 19.1707C48.3743 19.4975 48.2493 19.8724 48.1532 20.2954C48.0666 20.7087 47.9993 21.1269 47.9512 21.5498C47.9031 21.9728 47.8743 22.3813 47.8647 22.7755C47.8551 23.16 47.8503 23.4868 47.8503 23.756L50.8938 22.0112Z" fill="#05182A"/>
<path d="M6.76509 10C5.13032 10 3.68306 10.0865 2.25022 10.3172V11.2977V20.3674H0V21.6363H2.25022V27.3896C2.25022 28.0529 2.3512 28.6249 2.55314 29.1055C2.7647 29.5765 3.03395 29.9755 3.36091 30.3023C3.69748 30.6292 4.07733 30.8935 4.50045 31.0954C4.93318 31.2876 5.37073 31.4366 5.81308 31.5424C6.25543 31.6385 6.68336 31.701 7.09686 31.7298C7.51998 31.7683 7.89502 31.7875 8.22197 31.7875C9.20284 31.7875 10.0779 31.6722 10.8472 31.4414C11.6262 31.2011 12.3041 30.9223 12.8811 30.6051C13.4677 30.2879 13.9629 29.9659 14.3668 29.639C14.7707 29.3026 15.0928 29.0382 15.3333 28.846L14.7707 28.2259C14.5495 28.4086 14.2562 28.596 13.8908 28.7883C13.535 28.9806 13.1359 29.1536 12.6936 29.3074C12.2608 29.4612 11.7992 29.591 11.3088 29.6967C10.8184 29.7928 10.3279 29.8409 9.83751 29.8409C9.40478 29.8409 9.01051 29.7928 8.65471 29.6967C8.30852 29.6006 8.01041 29.4468 7.76039 29.2353C7.51036 29.0238 7.31803 28.7595 7.1834 28.4422C7.04878 28.1154 6.98146 27.7261 6.98146 27.2743V21.6363H12.9676V20.3674H6.98146V11.1247C7.98156 11.1247 8.83261 11.1583 9.5346 11.2256C10.2462 11.2929 10.8376 11.3794 11.3088 11.4852C11.7896 11.5909 12.1695 11.7015 12.4483 11.8168C12.7368 11.9322 12.9628 12.0427 13.1263 12.1485C13.2994 12.2542 13.4292 12.3407 13.5158 12.408C13.6119 12.4753 13.6985 12.509 13.7754 12.509C13.9004 12.509 14.0062 12.4657 14.0927 12.3792C14.1793 12.2927 14.2514 12.1917 14.3091 12.0764C14.3668 11.9514 14.4101 11.8216 14.4389 11.6871C14.4678 11.5429 14.4822 11.4131 14.4822 11.2977C14.4822 11.1632 14.4726 11.0478 14.4534 10.9517C14.4341 10.8459 14.3957 10.7546 14.338 10.6777C14.2803 10.6008 14.1937 10.5335 14.0783 10.4758C13.9629 10.4182 13.8091 10.3653 13.6167 10.3172C13.4148 10.2692 13.0926 10.2259 12.6503 10.1875C12.2079 10.149 11.679 10.1154 11.0636 10.0865C10.4578 10.0577 9.78463 10.0385 9.04417 10.0288C8.30371 10.0096 7.54402 10 6.76509 10Z" fill="#05182A"/>
</svg>
