<svg width="24" height="24" viewBox="0 0 24 24" fill="none" xmlns="http://www.w3.org/2000/svg">
<path d="M16.7993 13.4926C16.7603 13.4739 15.3023 12.7559 15.0432 12.6627C14.9374 12.6247 14.8241 12.5876 14.7036 12.5876C14.5067 12.5876 14.3413 12.6857 14.2125 12.8785C14.0668 13.095 13.6259 13.6104 13.4897 13.7643C13.4719 13.7846 13.4476 13.8089 13.4331 13.8089C13.42 13.8089 13.1944 13.716 13.1261 13.6863C11.562 13.0069 10.3748 11.3731 10.212 11.0976C10.1887 11.058 10.1877 11.04 10.1875 11.04C10.1933 11.019 10.2459 10.9663 10.273 10.9391C10.3524 10.8605 10.4385 10.7569 10.5217 10.6567C10.5611 10.6093 10.6006 10.5617 10.6394 10.5169C10.7601 10.3764 10.8139 10.2673 10.8762 10.1409L10.9089 10.0753C11.0611 9.77289 10.9311 9.51769 10.8891 9.43529C10.8546 9.36633 10.239 7.88048 10.1735 7.72438C10.0161 7.34769 9.80813 7.1723 9.5191 7.1723C9.49228 7.1723 9.5191 7.1723 9.40663 7.17704C9.26968 7.18282 8.52391 7.281 8.19416 7.48886C7.84449 7.70932 7.25293 8.41204 7.25293 9.64789C7.25293 10.7602 7.95877 11.8104 8.26183 12.2098C8.26936 12.2198 8.28319 12.2403 8.30326 12.2696C9.46384 13.9646 10.9107 15.2207 12.3773 15.8066C13.7894 16.3706 14.458 16.4358 14.8381 16.4358H14.8382C14.9979 16.4358 15.1258 16.4233 15.2386 16.4122L15.3101 16.4054C15.7979 16.3621 16.8699 15.8067 17.1137 15.1291C17.3058 14.5954 17.3564 14.0122 17.2287 13.8006C17.1411 13.6567 16.9903 13.5843 16.7993 13.4926Z" fill="#303A3B"/>
<path d="M12.1775 2C6.7609 2 2.35414 6.37364 2.35414 11.7496C2.35414 13.4883 2.81947 15.1903 3.70096 16.6799L2.01375 21.6569C1.98232 21.7497 2.0057 21.8523 2.07434 21.9222C2.12388 21.9727 2.19109 22 2.25973 22C2.28602 22 2.31252 21.9961 2.33836 21.9878L7.52798 20.3387C8.94811 21.0975 10.5532 21.498 12.1776 21.498C17.5937 21.4981 22 17.1249 22 11.7496C22 6.37364 17.5937 2 12.1775 2ZM12.1775 19.4672C10.649 19.4672 9.16856 19.0258 7.89596 18.1907C7.85317 18.1626 7.8035 18.1482 7.7535 18.1482C7.72707 18.1482 7.70057 18.1522 7.67479 18.1604L5.07512 18.9868L5.91434 16.5109C5.94148 16.4307 5.92791 16.3424 5.87791 16.274C4.90882 14.9499 4.39655 13.3854 4.39655 11.7496C4.39655 7.49351 7.88707 4.03091 12.1775 4.03091C16.4673 4.03091 19.9575 7.49351 19.9575 11.7496C19.9575 16.0051 16.4675 19.4672 12.1775 19.4672Z" fill="#303A3B"/>
</svg>
